<svg width="20" height="20" viewBox="0 0 20 20" fill="none" xmlns="http://www.w3.org/2000/svg">
<g clip-path="url(#clip0_212_211)">
<path d="M16.875 5.625H3.125C2.77982 5.625 2.5 5.90482 2.5 6.25V15.625C2.5 15.9702 2.77982 16.25 3.125 16.25H16.875C17.2202 16.25 17.5 15.9702 17.5 15.625V6.25C17.5 5.90482 17.2202 5.625 16.875 5.625Z" stroke="black" stroke-linecap="round" stroke-linejoin="round"/>
<path d="M6.875 7.5V5C6.875 4.1712 7.20424 3.37634 7.79029 2.79029C8.37634 2.20424 9.1712 1.875 10 1.875C10.8288 1.875 11.6237 2.20424 12.2097 2.79029C12.7958 3.37634 13.125 4.1712 13.125 5V7.5" stroke="black" stroke-linecap="round" stroke-linejoin="round"/>
</g>
<defs>
<clipPath id="clip0_212_211">
<rect width="20" height="20" fill="white"/>
</clipPath>
</defs>
</svg>
