<svg width="145" height="42" viewBox="0 0 145 42" fill="none" xmlns="http://www.w3.org/2000/svg">
<path d="M1.38453 0.0524902H13.3711C12.8542 2.80096 12.8353 6.96661 12.878 11.4854L12.968 22.088C12.968 32.4616 12.0956 34.7185 11.5029 36.193C9.30286 41.6804 3.57036 42.0001 2.88758 42.0001C1.97247 42.0001 0.734935 41.8474 0 41.5372C4.8079 39.0464 7.99419 36.465 7.85669 22.589L7.7666 12.8596C7.7666 10.6456 7.7666 6.58965 7.85669 4.14657C7.85669 4.14657 4.55186 3.97002 0.450446 4.55693L1.38453 0.0524902Z" fill="black"/>
<path d="M39.4635 0.0526242C39.1932 2.01377 39.1268 4.03696 39.1268 8.40302V20.7902C39.1268 22.9566 39.2596 24.369 39.7622 25.6621C41.4597 29.8564 45.4425 31.1256 47.6426 31.1256C51.3552 31.1256 54.5605 28.4821 55.523 25.2517C55.7079 24.5598 55.798 23.9586 55.798 21.7923C55.798 21.7923 55.798 10.1733 55.798 8.13103C55.798 6.09354 55.8359 2.62932 55.504 0.0478516H61.4214C61.1227 2.19987 61.0753 5.02468 61.0753 7.65864V25.5428C61.0753 27.9382 61.1085 30.6962 61.4499 34.6232H55.798C56.0256 32.8196 56.0351 32.1897 56.0256 31.2115C54.2807 32.476 50.3785 34.9477 45.1249 34.9477C38.0221 34.9477 33.9491 29.508 33.9491 21.6253V8.59388C33.9491 4.79088 33.9444 1.71793 33.6504 0.0526242H39.4635Z" fill="black"/>
<path d="M142.823 0.0526242L141.51 4.64295C138.034 3.7602 129.182 3.43572 126.882 3.52161V15.0642H139.035L137.769 19.4064C134.256 18.6764 130.339 18.4903 126.882 18.4903V30.9538C130.306 30.9538 139.011 30.7916 145 29.3076L143.701 34.628H121.581C121.79 32.5142 121.871 30.1093 121.871 25.6812V8.85632C121.871 6.5039 121.852 2.72475 121.463 0.0478516H142.823V0.0526242Z" fill="black"/>
<path d="M81.0185 9.50036C81.0185 4.70485 80.9 1.95638 80.5586 0.114519C81.6349 0.0334005 82.2987 0 83.2138 0C89.833 0 97.6897 0.577372 102.91 7.3054C105.428 10.5788 106.234 14.2672 106.234 17.6313C106.234 26.621 99.776 34.6183 88.439 34.6183H80.7056C81.2177 32.5093 81.0138 30.467 81.0138 24.1064V9.50036H81.0185ZM86.1536 31.2639C97.7987 30.8678 100.345 22.8658 100.345 17.2018C100.345 11.8003 97.1017 3.89844 86.1536 3.23518V31.2639Z" fill="black"/>
</svg>
